# xmcd
#
# Track frame offsets: 
#        150
#        10674
#        22741
#        35856
#        48859
#        61006
#        72815
#        87659
#        103017
#        113854
#        125562
#        138199
#        150461
#        162722
#        174773
#        187306
#        201016
#        214832
#        225944
#        235279
#        249624
#        264426
#        281682
#        294218
#        306815
#        321767
#        337648
#        349080
#
# Disc length: 4832 seconds
#
# Revision: 2
# Processed by: cddbd v1.5.2PL0 Copyright (c) Steve Scherf et al.
# Submitted via: ExactAudioCopyFreeDBPlugin 1.0
#
DISCID=8512de1c
DTITLE=Various Artist - Sweet Soul Music:  411 Scorching Classics, 19
DTITLE=61-1975 [Bear Family]
DYEAR=2009
DGENRE=Soul
TTITLE0=Sly and The Family Stone - Everyday People
TTITLE1=William Bell - I Forgot to Be Your Lover
TTITLE2=The Foundations - Build Me Up Buttercup
TTITLE3=Tyrone Davis - Can I Change My Mind
TTITLE4=Betty Everett - There'll Come a Time
TTITLE5=Johnnie Taylor - Take Care of Your Homework
TTITLE6=Edwin Starr - Twenty-Five Miles
TTITLE7=Dee Dee Warwick - Foolish Fool
TTITLE8=Peggy Scott and Jo Jo Benson - Soulshake
TTITLE9=Jerry Butler - Only the Strong Survive
TTITLE10=Clarence Carter - Snatching it Back
TTITLE11=The Isley Brothers - It's Your Thing
TTITLE12=The Chi-Lites - Give it Away
TTITLE13=Joe Simon - The Chokin' Kind
TTITLE14=Bobby Patterson - T.C.B. or T.Y.A.
TTITLE15=The Winstons - Color Him Father
TTITLE16=The Meters - Cissy Strut
TTITLE17=Jr. Walker and The All Stars - What Does it Take (To Win Your L
TTITLE17=ove)
TTITLE18=Candi Staton - I'd Rather Be an Old Man's Sweetheart (Than a 
TTITLE18=Young Man's Fool)
TTITLE19=James Brown - Mother Popcorn (You Got to Have a Mother for Me
TTITLE19=)
TTITLE20=The Impressions - Choice of Colors
TTITLE21=Johnny Adams - Reconsider Me
TTITLE22=Clarence Reid - Nobody But You Babe
TTITLE23=The Intrigues - In a Moment
TTITLE24=The Originals - Baby, I'm for Real
TTITLE25=Diana Ross and The Supremes - Someday We'll Be Together
TTITLE26=Mel and Tim - Backfield in Motion
TTITLE27=The Jackson 5 - I Want You Back
EXTD=
EXTT0=
EXTT1=
EXTT2=
EXTT3=
EXTT4=
EXTT5=
EXTT6=
EXTT7=
EXTT8=
EXTT9=
EXTT10=
EXTT11=
EXTT12=
EXTT13=
EXTT14=
EXTT15=
EXTT16=
EXTT17=
EXTT18=
EXTT19=
EXTT20=
EXTT21=
EXTT22=
EXTT23=
EXTT24=
EXTT25=
EXTT26=
EXTT27=
PLAYORDER=
